<?xml version="1.0" encoding="UTF-8"?>
<svg width="48px" height="48px" version="1.1" viewBox="0 0 48 48" xmlns="http://www.w3.org/2000/svg">
 <polygon points="3 17 3 31 8 32 13 31 13 17 8 16" fill="#1e88e5"/>
 <path d="m37 24v14c0 1.657-1.343 3-3 3h-21l-1-5 1-5h14v-7l5-1 5 1z" fill="#4caf50"/>
 <path d="m37 10v14h-10v-7h-14l-1-5 1-5h21c1.657 0 3 1.343 3 3z" fill="#fbc02d"/>
 <path d="M13,31v10H6c-1.657,0-3-1.343-3-3v-7H13z" fill="#1565c0"/>
 <polygon points="13 7 13 17 3 17" fill="#e53935"/>
 <polygon points="38 24 37 32.45 27 24 37 15.55" fill="#2e7d32"/>
 <path d="M46,10.11v27.78c0,0.84-0.98,1.31-1.63,0.78L37,32.45v-16.9l7.37-6.22C45.02,8.8,46,9.27,46,10.11z" fill="#4caf50"/>
</svg>
